<svg width="30" height="33" viewBox="0 0 30 33" fill="none" xmlns="http://www.w3.org/2000/svg">
<path d="M2.7499 32.1375L0.649902 31.175C1.2624 29.6875 3.1874 28.9 5.3749 27.9375C7.4749 26.975 10.0999 25.8375 10.0999 24.4375V22.5125C9.31239 21.9 8.08739 20.5 7.91239 18.4875C7.29989 17.875 6.3374 16.7375 6.3374 15.3375C6.3374 14.4625 6.6874 13.7625 6.9499 13.325C6.7749 12.3625 6.42489 10.4375 6.42489 8.94998C6.42489 4.13748 9.7499 0.987488 14.9999 0.987488C16.4874 0.987488 18.3249 1.42497 19.2874 2.47497C21.6499 2.91247 23.5749 5.71248 23.5749 8.94998C23.5749 11.05 23.2249 12.8 22.9624 13.5875C23.2249 14.025 23.4874 14.6375 23.4874 15.3375C23.4874 17 22.6999 18.05 21.9124 18.575C21.7374 20.5875 20.5999 21.9 19.8999 22.5125V24.4375C19.8999 25.6625 22.0874 26.45 24.0999 27.2375C26.4624 28.1125 28.9124 28.9875 29.6999 31L27.5124 31.7875C27.1624 30.7375 25.0624 30.0375 23.3124 29.3375C20.5999 28.375 17.5374 27.2375 17.5374 24.4375V21.2875L18.0624 20.9375C18.1499 20.9375 19.6374 19.8875 19.6374 17.875V17.0875L20.3374 16.825C20.4249 16.7375 21.1249 16.3875 21.1249 15.3375C21.1249 14.9875 20.8624 14.6375 20.7749 14.55L20.3374 14.025L20.5124 13.4125C20.5124 13.4125 21.1249 11.4875 21.1249 8.86247C21.1249 6.67497 19.8999 4.66247 18.5874 4.66247H17.8874L17.5374 4.04999C17.2749 3.61249 16.2249 3.17499 14.8249 3.17499C10.8874 3.17499 8.5249 5.27497 8.5249 8.86247C8.5249 10.525 9.1374 13.2375 9.1374 13.2375L9.3124 13.85L8.8749 14.2875C8.8749 14.2875 8.5249 14.725 8.5249 15.1625C8.5249 15.775 9.31239 16.5625 9.66239 16.9125L10.0999 17.2625V17.875C10.0999 19.8 11.7624 20.85 11.7624 20.85L12.2874 21.2V24.35C12.2874 27.2375 9.04989 28.725 6.16239 29.95C4.93739 30.65 3.0999 31.525 2.7499 32.1375Z" fill="white"/>
</svg>
